<?xml version="1.0" encoding="UTF-8"?>
<svg width="117.16" height="131.76" version="1.1" viewBox="0 -112.08 117.16 131.76" xmlns="http://www.w3.org/2000/svg">
 <rect x="15.635" y="-102.73" width="100" height="112.08" fill="#fff"/>
 <g fill="none" stroke="#020202" stroke-width=".41341">
  <path d="m21.885 12.618v-1.0245"/>
  <path d="m28.135 12.618v-1.0245"/>
  <path d="m34.385 12.618v-1.0245"/>
  <path d="m40.635 12.618v-1.0245"/>
  <path d="m46.885 12.618v-1.0245"/>
  <path d="m53.135 12.618v-1.0245"/>
  <path d="m59.385 12.618v-1.0245"/>
  <path d="m65.635 12.618v-1.0245"/>
  <path d="m71.885 12.618v-1.0245"/>
  <path d="m78.135 12.618v-1.0245"/>
  <path d="m84.385 12.618v-1.0245"/>
  <path d="m90.635 12.618v-1.0245"/>
  <path d="m96.885 12.618v-1.0245"/>
  <path d="m103.14 12.618v-1.0245"/>
  <path d="m109.39 12.618v-1.0245"/>
  <path d="m115.64 12.618v-1.0245"/>
  <path d="m115.64 11.594h-93.75"/>
 </g>
 <g font-family="sans-serif" font-size="2.6667px" letter-spacing="0px" text-anchor="middle">
  <text x="21.885386" y="15.367279" text-align="center" style="line-height:1.25" xml:space="preserve"><tspan x="21.885386" y="15.367279">1</tspan></text>
  <text x="28.135378" y="15.367279" text-align="center" style="line-height:1.25" xml:space="preserve"><tspan x="28.135378" y="15.367279">2</tspan></text>
  <text x="34.385376" y="15.367279" text-align="center" style="line-height:1.25" xml:space="preserve"><tspan x="34.385376" y="15.367279">3</tspan></text>
  <text x="40.635372" y="15.367279" text-align="center" style="line-height:1.25" xml:space="preserve"><tspan x="40.635372" y="15.367279">4</tspan></text>
  <text x="46.885406" y="15.367279" text-align="center" style="line-height:1.25" xml:space="preserve"><tspan x="46.885406" y="15.367279">5</tspan></text>
  <text x="53.135403" y="15.367279" text-align="center" style="line-height:1.25" xml:space="preserve"><tspan x="53.135403" y="15.367279">6</tspan></text>
  <text x="59.385483" y="15.367279" text-align="center" style="line-height:1.25" xml:space="preserve"><tspan x="59.385483" y="15.367279">7</tspan></text>
  <text x="65.635437" y="15.367279" text-align="center" style="line-height:1.25" xml:space="preserve"><tspan x="65.635437" y="15.367279">8</tspan></text>
  <text x="71.885391" y="15.367279" text-align="center" style="line-height:1.25" xml:space="preserve"><tspan x="71.885391" y="15.367279">9</tspan></text>
  <text x="78.135345" y="15.367279" text-align="center" style="line-height:1.25" xml:space="preserve"><tspan x="78.135345" y="15.367279">10</tspan></text>
  <text x="84.3853" y="15.367279" text-align="center" style="line-height:1.25" xml:space="preserve"><tspan x="84.3853" y="15.367279">11</tspan></text>
  <text x="90.635254" y="15.367279" text-align="center" style="line-height:1.25" xml:space="preserve"><tspan x="90.635254" y="15.367279">12</tspan></text>
  <text x="96.885208" y="15.367279" text-align="center" style="line-height:1.25" xml:space="preserve"><tspan x="96.885208" y="15.367279">13</tspan></text>
  <text x="103.13558" y="15.367279" text-align="center" style="line-height:1.25" xml:space="preserve"><tspan x="103.13558" y="15.367279">14</tspan></text>
  <text x="109.38554" y="15.367279" text-align="center" style="line-height:1.25" xml:space="preserve"><tspan x="109.38554" y="15.367279">15</tspan></text>
  <text x="115.6354" y="15.367279" text-align="center" style="line-height:1.25" xml:space="preserve"><tspan x="115.6354" y="15.367279">16</tspan></text>
 </g>
 <g fill="none" stroke="#090909" stroke-width=".5">
  <path d="m19.839-110.82v120"/>
  <path d="m18.517-100.82h1.3228"/>
  <path d="m18.517-90.825h1.3228"/>
  <path d="m18.517-80.825h1.3228"/>
  <path d="m18.517-70.825h1.3228"/>
  <path d="m18.517-60.825h1.3228"/>
  <path d="m18.517-50.825h1.3228"/>
  <path d="m18.517-40.825h1.3228"/>
  <path d="m18.517-30.825h1.3228"/>
  <path d="m18.517-20.825h1.3228"/>
  <path d="m18.517-10.825h1.3228"/>
  <path d="m18.517-0.82459h1.3228"/>
  <path d="m18.517-110.82h1.3228"/>
  <path d="m18.517 9.1754h1.3228"/>
 </g>
 <g font-family="sans-serif" font-size="2.6667px" letter-spacing="0px" text-anchor="end">
  <text x="15.775861" y="-110.05404" text-align="end" style="line-height:1.25" xml:space="preserve"><tspan x="15.775861" y="-110.05404">1200MiB</tspan></text>
  <text x="15.775861" y="-100.05404" text-align="end" style="line-height:1.25" xml:space="preserve"><tspan x="15.775861" y="-100.05404">1100MiB</tspan></text>
  <text x="15.775861" y="-90.054039" text-align="end" style="line-height:1.25" xml:space="preserve"><tspan x="15.775861" y="-90.054039">1000MiB</tspan></text>
  <text x="15.775861" y="9.945962" text-align="end" style="line-height:1.25" xml:space="preserve"><tspan x="15.775861" y="9.945962">0MiB</tspan></text>
  <text x="15.775861" y="-0.054037273" text-align="end" style="line-height:1.25" xml:space="preserve"><tspan x="15.775861" y="-0.054037273">100MiB</tspan></text>
  <text x="15.775861" y="-10.054039" text-align="end" style="line-height:1.25" xml:space="preserve"><tspan x="15.775861" y="-10.054039">200MiB</tspan></text>
  <text x="15.775861" y="-20.054037" text-align="end" style="line-height:1.25" xml:space="preserve"><tspan x="15.775861" y="-20.054037">300MiB</tspan></text>
  <text x="15.775861" y="-30.054033" text-align="end" style="line-height:1.25" xml:space="preserve"><tspan x="15.775861" y="-30.054033">400MiB</tspan></text>
  <text x="15.775861" y="-40.054035" text-align="end" style="line-height:1.25" xml:space="preserve"><tspan x="15.775861" y="-40.054035">500MiB</tspan></text>
  <text x="15.775861" y="-50.054035" text-align="end" style="line-height:1.25" xml:space="preserve"><tspan x="15.775861" y="-50.054035">600MiB</tspan></text>
  <text x="15.775861" y="-60.054039" text-align="end" style="line-height:1.25" xml:space="preserve"><tspan x="15.775861" y="-60.054039">700MiB</tspan></text>
  <text x="15.775861" y="-70.054039" text-align="end" style="line-height:1.25" xml:space="preserve"><tspan x="15.775861" y="-70.054039">800MiB</tspan></text>
  <text x="15.775861" y="-80.054039" text-align="end" style="line-height:1.25" xml:space="preserve"><tspan x="15.775861" y="-80.054039">900MiB</tspan></text>
 </g>
 <g transform="translate(15.635 9.3478)" fill="none" stroke="#cecece" stroke-width=".5">
  <path d="m6.2982-120.17v120"/>
  <path d="m12.545-120.17v120"/>
  <path d="m18.792-120.17v120"/>
  <path d="m25.039-120.17v120"/>
  <path d="m31.285-120.17v120"/>
  <path d="m37.532-120.17v120"/>
  <path d="m43.779-120.17v120"/>
  <path d="m50.026-120.17v120"/>
  <path d="m56.272-120.17v120"/>
  <path d="m62.519-120.17v120"/>
  <path d="m68.766-120.17v120"/>
  <path d="m75.013-120.17v120"/>
  <path d="m81.26-120.17v120"/>
  <path d="m87.506-120.17v120"/>
  <path d="m93.753-120.17v120"/>
  <path d="m6.2783-110.17h93.677"/>
  <path d="m6.2783-100.17h93.677"/>
  <path d="m6.2783-90.172h93.677"/>
  <path d="m6.2783-80.172h93.677"/>
  <path d="m6.2783-70.172h93.677"/>
  <path d="m6.2783-60.172h93.677"/>
  <path d="m6.2783-50.172h93.677"/>
  <path d="m6.2783-40.172h93.677"/>
  <path d="m6.2783-30.172h93.677"/>
  <path d="m6.2783-20.172h93.677"/>
  <path d="m6.2783-10.172h93.677"/>
  <path d="m100-120.17v120"/>
  <path d="m6.2783-120.17h93.677"/>
  <path d="m6.2982-0.17237h93.677"/>
 </g>
 <text x="68.694633" y="19.641716" font-family="sans-serif" font-size="2.6667px" letter-spacing="0px" text-align="center" text-anchor="middle" style="line-height:1.25" xml:space="preserve"><tspan x="68.694633" y="19.641716">Number of threads</tspan></text>
 <text transform="rotate(-90)" x="50.814827" y="2.0260444" font-family="sans-serif" font-size="2.6667px" letter-spacing="0px" text-align="center" text-anchor="middle" style="line-height:1.25" xml:space="preserve"><tspan x="50.814827" y="2.0260444">Memory required</tspan></text>
 <rect x="30.533" y="-104.53" width="18.428" height="12.487" fill="#fff" stroke="#020202" stroke-width=".5"/>
 <text x="38.357307" y="-100.67607" font-family="sans-serif" font-size="2.6667px" letter-spacing="0px" style="line-height:1.25" xml:space="preserve"><tspan x="38.357307" y="-100.67607">FGS</tspan><tspan x="38.357307" y="-97.342735">FGS+</tspan><tspan x="38.357307" y="-94.009399">FGSrs</tspan></text>
 <circle cx="35.098" cy="-98.362" r="1" fill="#f28e2b"/>
 <circle cx="35.107" cy="-95.044" r="1" fill="#e15759"/>
 <circle cx="35.227" cy="-101.63" r="1" fill="#4e79a7"/>
 <g transform="translate(-102.38 9.6266)">
  <circle cx="124.26" cy="-15.738" r="1" fill="#4e79a7"/>
  <circle cx="124.26" cy="-35.574" r="1" fill="#f28e2b"/>
  <circle cx="124.26" cy="-16.482" r="1" fill="#e15759"/>
  <circle cx="130.51" cy="-23.503" r="1" fill="#4e79a7"/>
  <circle cx="130.51" cy="-37.725" r="1" fill="#f28e2b"/>
  <circle cx="130.51" cy="-23.084" r="1" fill="#e15759"/>
  <circle cx="136.76" cy="-24.868" r="1" fill="#4e79a7"/>
  <circle cx="136.76" cy="-51.719" r="1" fill="#f28e2b"/>
  <circle cx="136.76" cy="-23.284" r="1" fill="#e15759"/>
  <circle cx="143.01" cy="-39.032" r="1" fill="#4e79a7"/>
  <circle cx="143.01" cy="-52.912" r="1" fill="#f28e2b"/>
  <circle cx="143.01" cy="-36.287" r="1" fill="#e15759"/>
  <circle cx="149.26" cy="-40.397" r="1" fill="#4e79a7"/>
  <circle cx="149.26" cy="-69.777" r="1" fill="#f28e2b"/>
  <circle cx="149.26" cy="-36.487" r="1" fill="#e15759"/>
  <circle cx="155.51" cy="-54.562" r="1" fill="#4e79a7"/>
  <circle cx="155.51" cy="-68.1" r="1" fill="#f28e2b"/>
  <circle cx="155.51" cy="-49.49" r="1" fill="#e15759"/>
  <circle cx="161.76" cy="-55.927" r="1" fill="#4e79a7"/>
  <circle cx="161.76" cy="-84.008" r="1" fill="#f28e2b"/>
  <circle cx="161.76" cy="-49.691" r="1" fill="#e15759"/>
  <circle cx="168.01" cy="-70.092" r="1" fill="#4e79a7"/>
  <circle cx="168.01" cy="-93.516" r="1" fill="#f28e2b"/>
  <circle cx="168.01" cy="-62.693" r="1" fill="#e15759"/>
  <circle cx="174.26" cy="-65.057" r="1" fill="#4e79a7"/>
  <circle cx="174.26" cy="-96.623" r="1" fill="#f28e2b"/>
  <circle cx="174.26" cy="-62.894" r="1" fill="#e15759"/>
  <circle cx="180.51" cy="-85.621" r="1" fill="#4e79a7"/>
  <circle cx="180.51" cy="-112.53" r="1" fill="#f28e2b"/>
  <circle cx="180.51" cy="-75.896" r="1" fill="#e15759"/>
  <circle cx="186.76" cy="-86.986" r="1" fill="#4e79a7"/>
  <circle cx="186.76" cy="-76.097" r="1" fill="#e15759"/>
  <circle cx="193.01" cy="-94.751" r="1" fill="#4e79a7"/>
  <circle cx="193.01" cy="-89.1" r="1" fill="#e15759"/>
  <circle cx="199.26" cy="-95.316" r="1" fill="#4e79a7"/>
  <circle cx="199.26" cy="-95.701" r="1" fill="#e15759"/>
  <circle cx="205.51" cy="-96.68" r="1" fill="#4e79a7"/>
  <circle cx="205.51" cy="-95.902" r="1" fill="#e15759"/>
  <circle cx="211.76" cy="-98.846" r="1" fill="#4e79a7"/>
  <circle cx="211.76" cy="-108.9" r="1" fill="#e15759"/>
  <circle cx="218.01" cy="-98.61" r="1" fill="#4e79a7"/>
  <circle cx="218.01" cy="-109.1" r="1" fill="#e15759"/>
 </g>
</svg>
