<?xml version="1.0" encoding="UTF-8"?>
<svg width="107.64" height="105.05" version="1.1" viewBox="0 -100 107.64 105.05" xmlns="http://www.w3.org/2000/svg">
 <g fill="none" stroke="#e6e6e6" stroke-width=".41341">
  <path d="m12.361-98.962 1e-4 93.75"/>
  <path d="m18.611-98.962 1e-4 93.75"/>
  <path d="m24.861-98.962 1e-4 93.75"/>
  <path d="m31.111-98.962 1e-4 93.75"/>
  <path d="m37.361-98.962 1e-4 93.75"/>
  <path d="m43.611-98.962 1e-4 93.75"/>
  <path d="m49.861-98.962 1e-4 93.75"/>
  <path d="m56.111-98.962 1e-4 93.75"/>
  <path d="m62.361-98.962 1e-4 93.75"/>
  <path d="m68.611-98.962 1e-4 93.75"/>
  <path d="m74.861-98.962 1e-4 93.75"/>
  <path d="m81.111-98.962 1e-4 93.75"/>
  <path d="m87.361-98.962 1e-4 93.75"/>
  <path d="m93.611-98.962 1e-4 93.75"/>
  <path d="m99.861-98.962 1e-4 93.75"/>
  <path d="m12.361-92.712 93.75-9.6e-5"/>
  <path d="m12.361-86.462 93.75-9.6e-5"/>
  <path d="m12.361-80.212 93.75-9.6e-5"/>
  <path d="m12.361-73.962 93.75-9.6e-5"/>
  <path d="m12.361-67.712 93.75-9.6e-5"/>
  <path d="m12.361-61.462 93.75-9.6e-5"/>
  <path d="m12.361-55.212 93.75-9.6e-5"/>
  <path d="m12.361-48.962 93.75-9.6e-5"/>
  <path d="m12.361-42.712 93.75-9.6e-5"/>
  <path d="m12.361-36.462 93.75-9.6e-5"/>
  <path d="m12.361-30.212 93.75-9.6e-5"/>
  <path d="m12.361-23.962 93.75-9.6e-5"/>
  <path d="m12.361-17.712 93.75-9.6e-5"/>
  <path d="m12.361-11.462 93.75-9.6e-5"/>
  <path d="m12.361-5.2121 93.75-9.56e-5"/>
 </g>
 <path d="m12.361-5.2121 93.75-93.75" stroke="#808080" stroke-dasharray="2, 2"/>
 <g fill="none" stroke="#020202" stroke-width=".41341">
  <path d="m12.361-2.0077v-1.0245"/>
  <path d="m18.611-2.0077v-1.0245"/>
  <path d="m24.861-2.0077v-1.0245"/>
  <path d="m31.111-2.0077v-1.0245"/>
  <path d="m37.361-2.0077v-1.0245"/>
  <path d="m43.611-2.0077v-1.0245"/>
  <path d="m49.861-2.0077v-1.0245"/>
  <path d="m56.111-2.0077v-1.0245"/>
  <path d="m62.361-2.0077v-1.0245"/>
  <path d="m68.611-2.0077v-1.0245"/>
  <path d="m74.861-2.0077v-1.0245"/>
  <path d="m81.111-2.0077v-1.0245"/>
  <path d="m87.361-2.0077v-1.0245"/>
  <path d="m93.611-2.0077v-1.0245"/>
  <path d="m99.861-2.0077v-1.0245"/>
  <path d="m106.11-2.0077v-1.0245"/>
  <path d="m9.0103-92.712h1.0245"/>
  <path d="m9.0103-86.462h1.0245"/>
  <path d="m9.0103-80.212h1.0245"/>
  <path d="m9.0103-73.962h1.0245"/>
  <path d="m9.0103-67.712h1.0245"/>
  <path d="m9.0103-61.462h1.0245"/>
  <path d="m9.0103-55.212h1.0245"/>
  <path d="m9.0103-48.962h1.0245"/>
  <path d="m9.0103-42.712h1.0245"/>
  <path d="m9.0103-36.462h1.0245"/>
  <path d="m9.0103-30.212h1.0245"/>
  <path d="m9.0103-23.962h1.0245"/>
  <path d="m9.0103-17.712h1.0245"/>
  <path d="m9.0103-11.462h1.0245"/>
  <path d="m9.0103-5.2121h1.0245"/>
  <path d="m9.0103-98.962h1.0245"/>
  <path d="m10.035-5.2121v-93.75"/>
  <path d="m106.11-3.0321h-93.75"/>
 </g>
 <g font-family="sans-serif" font-size="2.6667px" letter-spacing="0px" text-anchor="middle">
  <text x="12.360854" y="0.74162096" text-align="center" style="line-height:1.25" xml:space="preserve"><tspan x="12.360854" y="0.74162096">1</tspan></text>
  <text x="18.610849" y="0.74162096" text-align="center" style="line-height:1.25" xml:space="preserve"><tspan x="18.610849" y="0.74162096">2</tspan></text>
  <text x="24.860846" y="0.74162096" text-align="center" style="line-height:1.25" xml:space="preserve"><tspan x="24.860846" y="0.74162096">3</tspan></text>
  <text x="31.110842" y="0.74162096" text-align="center" style="line-height:1.25" xml:space="preserve"><tspan x="31.110842" y="0.74162096">4</tspan></text>
  <text x="37.360878" y="0.74162096" text-align="center" style="line-height:1.25" xml:space="preserve"><tspan x="37.360878" y="0.74162096">5</tspan></text>
  <text x="43.610874" y="0.74162096" text-align="center" style="line-height:1.25" xml:space="preserve"><tspan x="43.610874" y="0.74162096">6</tspan></text>
  <text x="49.860954" y="0.74162096" text-align="center" style="line-height:1.25" xml:space="preserve"><tspan x="49.860954" y="0.74162096">7</tspan></text>
  <text x="56.110909" y="0.74162096" text-align="center" style="line-height:1.25" xml:space="preserve"><tspan x="56.110909" y="0.74162096">8</tspan></text>
  <text x="62.360863" y="0.74162096" text-align="center" style="line-height:1.25" xml:space="preserve"><tspan x="62.360863" y="0.74162096">9</tspan></text>
  <text x="68.610809" y="0.74162096" text-align="center" style="line-height:1.25" xml:space="preserve"><tspan x="68.610809" y="0.74162096">10</tspan></text>
  <text x="74.860764" y="0.74162096" text-align="center" style="line-height:1.25" xml:space="preserve"><tspan x="74.860764" y="0.74162096">11</tspan></text>
  <text x="81.110718" y="0.74162096" text-align="center" style="line-height:1.25" xml:space="preserve"><tspan x="81.110718" y="0.74162096">12</tspan></text>
  <text x="87.360672" y="0.74162096" text-align="center" style="line-height:1.25" xml:space="preserve"><tspan x="87.360672" y="0.74162096">13</tspan></text>
  <text x="93.611046" y="0.74162096" text-align="center" style="line-height:1.25" xml:space="preserve"><tspan x="93.611046" y="0.74162096">14</tspan></text>
  <text x="99.860992" y="0.74162096" text-align="center" style="line-height:1.25" xml:space="preserve"><tspan x="99.860992" y="0.74162096">15</tspan></text>
  <text x="106.11086" y="0.74162096" text-align="center" style="line-height:1.25" xml:space="preserve"><tspan x="106.11086" y="0.74162096">16</tspan></text>
 </g>
 <rect x="17.446" y="-94.741" width="18.428" height="12.487" fill="#fff" stroke="#020202" stroke-width=".5"/>
 <text x="25.270435" y="-90.890266" font-family="sans-serif" font-size="2.6667px" letter-spacing="0px" style="line-height:1.25" xml:space="preserve"><tspan x="25.270435" y="-90.890266">FGS</tspan><tspan x="25.270435" y="-87.556931">FGS+</tspan><tspan x="25.270435" y="-84.223595">FGSrs</tspan></text>
 <circle cx="22.011" cy="-88.576" r="1" fill="#f28e2b"/>
 <circle cx="22.02" cy="-85.259" r="1" fill="#e15759"/>
 <circle cx="22.14" cy="-91.843" r="1" fill="#4e79a7"/>
 <g font-family="sans-serif" font-size="2.6667px" letter-spacing="0px" text-anchor="middle">
  <text x="5.6288538" y="-4.230463" text-align="center" style="line-height:1.25" xml:space="preserve"><tspan x="5.6288538" y="-4.230463">1</tspan></text>
  <text x="5.6705179" y="-10.403636" text-align="center" style="line-height:1.25" xml:space="preserve"><tspan x="5.6705179" y="-10.403636">2</tspan></text>
  <text x="5.658803" y="-16.703117" text-align="center" style="line-height:1.25" xml:space="preserve"><tspan x="5.658803" y="-16.703117">3</tspan></text>
  <text x="5.6620569" y="-22.947243" text-align="center" style="line-height:1.25" xml:space="preserve"><tspan x="5.6620569" y="-22.947243">4</tspan></text>
  <text x="5.6848421" y="-29.212257" text-align="center" style="line-height:1.25" xml:space="preserve"><tspan x="5.6848421" y="-29.212257">5</tspan></text>
  <text x="5.6444826" y="-35.467472" text-align="center" style="line-height:1.25" xml:space="preserve"><tspan x="5.6444826" y="-35.467472">6</tspan></text>
  <text x="5.656846" y="-41.702576" text-align="center" style="line-height:1.25" xml:space="preserve"><tspan x="5.656846" y="-41.702576">7</tspan></text>
  <text x="5.6542444" y="-47.957737" text-align="center" style="line-height:1.25" xml:space="preserve"><tspan x="5.6542444" y="-47.957737">8</tspan></text>
  <text x="5.6633577" y="-54.198578" text-align="center" style="line-height:1.25" xml:space="preserve"><tspan x="5.6633577" y="-54.198578">9</tspan></text>
  <text x="5.5956507" y="-60.516235" text-align="center" style="line-height:1.25" xml:space="preserve"><tspan x="5.5956507" y="-60.516235">10</tspan></text>
  <text x="5.6288538" y="-66.730385" text-align="center" style="line-height:1.25" xml:space="preserve"><tspan x="5.6288538" y="-66.730385">11</tspan></text>
  <text x="5.6216898" y="-72.952354" text-align="center" style="line-height:1.25" xml:space="preserve"><tspan x="5.6216898" y="-72.952354">12</tspan></text>
  <text x="5.6138811" y="-79.247871" text-align="center" style="line-height:1.25" xml:space="preserve"><tspan x="5.6138811" y="-79.247871">13</tspan></text>
  <text x="5.5806742" y="-85.528847" text-align="center" style="line-height:1.25" xml:space="preserve"><tspan x="5.5806742" y="-85.528847">14</tspan></text>
  <text x="5.6412249" y="-91.756004" text-align="center" style="line-height:1.25" xml:space="preserve"><tspan x="5.6412249" y="-91.756004">15</tspan></text>
  <text x="5.5910921" y="-98.020828" text-align="center" style="line-height:1.25" xml:space="preserve"><tspan x="5.5910921" y="-98.020828">16</tspan></text>
 </g>
 <path d="m12.361-98.962 93.75-9.6e-5" fill="none" stroke="#e6e6e6" stroke-width=".41341"/>
 <path d="m106.11-98.962 1e-4 93.75" fill="none" stroke="#e6e6e6" stroke-width=".41341"/>
 <text x="59.27557" y="5.0111108" font-family="sans-serif" font-size="2.6667px" letter-spacing="0px" text-align="center" text-anchor="middle" style="line-height:1.25" xml:space="preserve"><tspan x="59.27557" y="5.0111108">Number of threads</tspan></text>
 <text transform="rotate(-90)" x="52.11385" y="2.0260444" font-family="sans-serif" font-size="2.6667px" letter-spacing="0px" text-align="center" text-anchor="middle" style="line-height:1.25" xml:space="preserve"><tspan x="52.11385" y="2.0260444">Speedup factor</tspan></text>
 <g transform="translate(-101.03 .70111)">
  <circle cx="113.39" cy="-5.9135" r="1" fill="#4e79a7"/>
  <circle cx="113.39" cy="-5.9135" r="1" fill="#f28e2b"/>
  <circle cx="113.39" cy="-5.9135" r="1" fill="#e15759"/>
  <circle cx="119.64" cy="-10.413" r="1" fill="#4e79a7"/>
  <circle cx="119.64" cy="-11.222" r="1" fill="#f28e2b"/>
  <circle cx="119.64" cy="-11.967" r="1" fill="#e15759"/>
  <circle cx="125.89" cy="-15.072" r="1" fill="#4e79a7"/>
  <circle cx="125.89" cy="-16.292" r="1" fill="#f28e2b"/>
  <circle cx="125.89" cy="-16.455" r="1" fill="#e15759"/>
  <circle cx="132.14" cy="-20.427" r="1" fill="#4e79a7"/>
  <circle cx="132.14" cy="-20.739" r="1" fill="#f28e2b"/>
  <circle cx="132.14" cy="-22.906" r="1" fill="#e15759"/>
  <circle cx="138.39" cy="-23.99" r="1" fill="#4e79a7"/>
  <circle cx="138.39" cy="-26.838" r="1" fill="#f28e2b"/>
  <circle cx="138.39" cy="-27.896" r="1" fill="#e15759"/>
  <circle cx="144.64" cy="-27.475" r="1" fill="#4e79a7"/>
  <circle cx="144.64" cy="-30.793" r="1" fill="#f28e2b"/>
  <circle cx="144.64" cy="-32.197" r="1" fill="#e15759"/>
  <circle cx="150.89" cy="-30.15" r="1" fill="#4e79a7"/>
  <circle cx="150.89" cy="-35.162" r="1" fill="#f28e2b"/>
  <circle cx="150.89" cy="-36.827" r="1" fill="#e15759"/>
  <circle cx="157.14" cy="-33.496" r="1" fill="#4e79a7"/>
  <circle cx="157.14" cy="-40.019" r="1" fill="#f28e2b"/>
  <circle cx="157.14" cy="-40.175" r="1" fill="#e15759"/>
  <circle cx="163.39" cy="-36.047" r="1" fill="#4e79a7"/>
  <circle cx="163.39" cy="-43.641" r="1" fill="#f28e2b"/>
  <circle cx="163.39" cy="-44.522" r="1" fill="#e15759"/>
  <circle cx="169.64" cy="-38.212" r="1" fill="#4e79a7"/>
  <circle cx="169.64" cy="-48.028" r="1" fill="#f28e2b"/>
  <circle cx="169.64" cy="-47.769" r="1" fill="#e15759"/>
  <circle cx="175.89" cy="-40.589" r="1" fill="#4e79a7"/>
  <circle cx="175.89" cy="-51.919" r="1" fill="#e15759"/>
  <circle cx="182.14" cy="-42.443" r="1" fill="#4e79a7"/>
  <circle cx="182.14" cy="-54.527" r="1" fill="#e15759"/>
  <circle cx="188.39" cy="-44.424" r="1" fill="#4e79a7"/>
  <circle cx="188.39" cy="-59.026" r="1" fill="#e15759"/>
  <circle cx="194.64" cy="-44.43" r="1" fill="#4e79a7"/>
  <circle cx="194.64" cy="-62.194" r="1" fill="#e15759"/>
  <circle cx="200.89" cy="-45.621" r="1" fill="#4e79a7"/>
  <circle cx="200.89" cy="-65.476" r="1" fill="#e15759"/>
  <circle cx="207.14" cy="-38.483" r="1" fill="#4e79a7"/>
  <circle cx="207.14" cy="-65.671" r="1" fill="#e15759"/>
 </g>
</svg>
